<?xml version="1.0" encoding="UTF-8" standalone="no"?>
<svg
   viewBox="0 0 550.136 550.136"
   xml:space="preserve"
   version="1.1"
   id="svg4"
   sodipodi:docname="undo2.svg"
   inkscape:version="1.1.2 (0a00cf5339, 2022-02-04)"
   xmlns:inkscape="http://www.inkscape.org/namespaces/inkscape"
   xmlns:sodipodi="http://sodipodi.sourceforge.net/DTD/sodipodi-0.dtd"
   xmlns="http://www.w3.org/2000/svg"
   xmlns:svg="http://www.w3.org/2000/svg"><defs
   id="defs8" /><sodipodi:namedview
   id="namedview6"
   pagecolor="#ffffff"
   bordercolor="#666666"
   borderopacity="1.0"
   inkscape:pageshadow="2"
   inkscape:pageopacity="0.0"
   inkscape:pagecheckerboard="0"
   showgrid="false"
   inkscape:zoom="1.1742551"
   inkscape:cx="275.06799"
   inkscape:cy="275.06799"
   inkscape:window-width="1600"
   inkscape:window-height="828"
   inkscape:window-x="0"
   inkscape:window-y="0"
   inkscape:window-maximized="1"
   inkscape:current-layer="svg4" />
<path
   d="m 423.65272,206.72068 c -11.975,-18.584 -27.145,-34.707 -44.706,-47.731 l 38.953,-39.14 h -113.365 v 113.91 l 52.964,-53.219 c 40.142,28.131 65.042,74.724 65.042,124.571 0,83.744 -68.131,151.874 -151.874,151.874 -83.743,0 -151.874,-68.131 -151.874,-151.874 0,-20.479 4.002,-40.34 11.895,-59.03 l -27.637,-11.671 c -9.460996,22.403 -14.257996,46.19 -14.257996,70.701 0,100.286 81.587996,181.874 181.873996,181.874 100.286,0 181.874,-81.588 181.874,-181.874 0,-35.039 -9.989,-69.061 -28.888,-98.391 z"
   id="path2" />
</svg>
